<svg xmlns="http://www.w3.org/2000/svg" xmlns:xlink="http://www.w3.org/1999/xlink" width="500" zoomAndPan="magnify" viewBox="0 0 375 374.999991" height="500" preserveAspectRatio="xMidYMid meet" version="1.0"><defs><g/></defs><path fill="#feac7c" d="M 291.273438 235.523438 C 292.074219 227.945312 280.292969 185.078125 276.308594 179.207031 C 272.320312 173.335938 266.652344 173.859375 247.996094 180.410156 C 229.339844 186.960938 230.144531 208.980469 230.144531 208.980469 C 230.144531 208.980469 225.527344 220.835938 223.492188 224.351562 C 221.460938 227.871094 224.222656 230.246094 227.167969 229.597656 C 230.113281 228.953125 233.417969 225.945312 233.417969 225.945312 L 232.898438 234.578125 C 232.898438 234.578125 233.265625 238.585938 237.417969 236.625 C 241.570312 234.664062 242.800781 230.796875 242.800781 230.796875 C 242.800781 230.796875 242.324219 238.003906 250.164062 236.046875 C 258 234.089844 261.355469 236.027344 261.914062 237.574219 C 262.46875 239.125 268.941406 250.5625 269.609375 250.949219 C 270.28125 251.335938 287.226562 245.808594 289.730469 244.574219 C 292.234375 243.335938 291.273438 235.523438 291.273438 235.523438 Z M 291.273438 235.523438 " fill-opacity="1" fill-rule="nonzero"/><path fill="#ff4b3d" d="M 251.175781 200.445312 C 251.175781 200.445312 255.382812 205.832031 258.703125 207.636719 C 262.019531 209.4375 267.726562 210.105469 270.941406 216.539062 C 273.019531 220.699219 266.707031 220.574219 266.707031 220.574219 C 266.707031 220.574219 256.585938 215.070312 251.398438 208.953125 C 246.214844 202.835938 251.175781 200.445312 251.175781 200.445312 Z M 251.175781 200.445312 " fill-opacity="1" fill-rule="nonzero"/><path fill="#ff4b3d" d="M 233.101562 208.117188 C 232.851562 209.03125 240.363281 218.277344 242.195312 220.621094 C 244.03125 222.960938 251.136719 234.652344 254.683594 236.253906 C 258.230469 237.851562 244.90625 211.964844 240.21875 207.699219 C 235.53125 203.429688 233.476562 207.664062 233.101562 208.117188 Z M 233.101562 208.117188 " fill-opacity="1" fill-rule="nonzero"/><path fill="#7738c7" d="M 125.128906 116.585938 C 125.128906 116.585938 160.148438 105.511719 188.019531 92.105469 C 215.894531 78.695312 231.207031 64.96875 236.242188 72.117188 C 241.277344 79.265625 253.464844 136.324219 267.140625 155.605469 C 280.816406 174.882812 281.1875 173.085938 281.457031 177.261719 C 281.726562 181.4375 243.816406 210.273438 208.945312 226.125 C 165.546875 245.84375 160.402344 242.796875 159.855469 230.199219 C 159.3125 217.601562 135.746094 159.339844 126.289062 142.046875 C 116.828125 124.753906 110.101562 119.757812 125.128906 116.585938 Z M 125.128906 116.585938 " fill-opacity="1" fill-rule="nonzero"/><path fill="#171d8f" d="M 254.859375 128.941406 C 254.847656 133.851562 254.234375 163.464844 241.484375 189.179688 C 227.550781 217.285156 203.875 227.875 203.875 227.875 C 203.875 227.875 204.085938 228.113281 204.207031 228.25 C 205.738281 227.570312 207.304688 226.867188 208.941406 226.121094 C 243.816406 210.273438 281.726562 181.4375 281.457031 177.261719 C 281.1875 173.085938 280.816406 174.882812 267.140625 155.605469 C 262.84375 149.542969 258.691406 139.746094 254.859375 128.941406 Z M 254.859375 128.941406 " fill-opacity="1" fill-rule="nonzero"/><path fill="#feac7c" d="M 260.992188 250 C 259.703125 248.363281 249.726562 241.828125 245.386719 226.703125 C 241.046875 211.582031 230.347656 203.402344 230.164062 196.371094 C 229.980469 189.339844 235.1875 187.097656 241.539062 193.328125 C 247.886719 199.558594 254.398438 209.566406 260.027344 210.46875 C 265.65625 211.367188 273.292969 217.113281 276.890625 223.652344 C 280.488281 230.195312 285.226562 238.351562 277.570312 246.269531 C 269.914062 254.1875 263.589844 252.277344 260.992188 250 Z M 260.992188 250 " fill-opacity="1" fill-rule="nonzero"/><path fill="#ff4b3d" d="M 233.417969 225.945312 C 233.417969 225.945312 236.113281 219.34375 236.730469 217.410156 C 237.34375 215.476562 235.351562 219.410156 233.929688 221.769531 C 232.507812 224.132812 233.417969 225.945312 233.417969 225.945312 Z M 233.417969 225.945312 " fill-opacity="1" fill-rule="nonzero"/><path fill="#ff4b3d" d="M 258.28125 209.257812 C 258.53125 208.691406 261.28125 206.054688 264.011719 205.023438 C 266.742188 203.992188 262.082031 202.683594 259.742188 204.8125 C 257.40625 206.941406 256.417969 207.554688 256.417969 207.554688 Z M 258.28125 209.257812 " fill-opacity="1" fill-rule="nonzero"/><path fill="#ffffff" d="M 164.011719 132.390625 C 164.011719 132.390625 167.078125 107.335938 191.878906 104.273438 C 216.683594 101.210938 241.484375 126.265625 228.109375 147.144531 C 214.730469 168.023438 199.960938 167.1875 197.453125 176.652344 C 194.945312 186.117188 199.40625 195.304688 190.765625 196.140625 C 182.125 196.972656 180.734375 174.703125 189.09375 166.074219 C 197.453125 157.445312 219.46875 147.699219 215.847656 132.667969 C 212.222656 117.636719 196.617188 117.078125 189.371094 124.597656 C 182.125 132.113281 189.09375 138.515625 181.011719 144.082031 C 172.929688 149.648438 160.667969 149.929688 164.011719 132.390625 Z M 164.011719 132.390625 " fill-opacity="1" fill-rule="nonzero"/><path fill="#ffffff" d="M 184.144531 204.648438 C 181.078125 209.65625 180.523438 219.679688 189.71875 218.289062 C 198.914062 216.894531 197.523438 209.65625 197.242188 206.039062 C 196.964844 202.421875 188.605469 198.800781 184.144531 204.648438 Z M 184.144531 204.648438 " fill-opacity="1" fill-rule="nonzero"/><path fill="#ffc517" d="M 243.691406 86.867188 C 243.691406 86.867188 252.457031 68.902344 271.816406 73.003906 C 291.175781 77.105469 303.269531 102.253906 287.863281 114.4375 C 272.457031 126.617188 261.613281 122.1875 257.289062 128.625 C 252.96875 135.0625 253.933594 143.089844 247.25 141.488281 C 240.566406 139.886719 245.277344 122.855469 253.765625 118.550781 C 262.253906 114.246094 281.25 112.625 282.421875 100.4375 C 283.59375 88.25 272.054688 83.8125 264.6875 87.570312 C 257.324219 91.328125 260.882812 97.917969 253.394531 100.003906 C 245.90625 102.089844 236.65625 99.136719 243.691406 86.867188 Z M 243.691406 86.867188 " fill-opacity="1" fill-rule="nonzero"/><path fill="#ffc517" d="M 240.097656 146.152344 C 236.507812 149.113281 233.5 156.472656 240.746094 157.800781 C 247.988281 159.128906 248.816406 153.351562 249.542969 150.570312 C 250.269531 147.789062 244.945312 142.925781 240.097656 146.152344 Z M 240.097656 146.152344 " fill-opacity="1" fill-rule="nonzero"/><path fill="#ff4b3d" d="M 113.707031 203.957031 C 113.707031 203.957031 108.617188 187.8125 122.910156 179.066406 C 137.203125 170.324219 159.304688 178.746094 156.9375 195.199219 C 154.570312 211.65625 145.320312 215.238281 146.417969 221.714844 C 147.515625 228.1875 152.789062 232.558594 147.746094 235.464844 C 142.707031 238.367188 135.667969 225.15625 138.375 217.570312 C 141.082031 209.984375 151.816406 197.933594 145.429688 189.761719 C 139.042969 181.585938 129.359375 185.574219 127.023438 192.171875 C 124.6875 198.769531 130.71875 200.746094 127.332031 206.386719 C 123.945312 212.023438 116.535156 215.59375 113.707031 203.957031 Z M 113.707031 203.957031 " fill-opacity="1" fill-rule="nonzero"/><path fill="#ff4b3d" d="M 146.070312 242.496094 C 145.589844 246.402344 148.03125 252.675781 153.261719 249.277344 C 158.488281 245.878906 155.628906 241.847656 154.453125 239.714844 C 153.277344 237.582031 147.167969 237.6875 146.070312 242.496094 Z M 146.070312 242.496094 " fill-opacity="1" fill-rule="nonzero"/><path fill="#fecd91" d="M 235.214844 192.730469 C 234.9375 192.730469 231.105469 193.007812 232.707031 198.085938 C 234.308594 203.167969 235.773438 203.585938 238.558594 202.542969 C 241.347656 201.496094 243.578125 198.785156 241.136719 196.625 C 238.699219 194.46875 237.304688 192.660156 235.214844 192.730469 Z M 235.214844 192.730469 " fill-opacity="1" fill-rule="nonzero"/><g fill="#fdb811" fill-opacity="0.4"><g transform="translate(81.143745, 285.550029)"><g><path d="M 35.1875 -70.671875 C 15.71875 -70.671875 -0.296875 -54.65625 -0.296875 -35.09375 C -0.296875 -15.421875 15.71875 0.203125 35.1875 0.203125 C 38.640625 0.203125 41.90625 0 45.078125 -1.09375 L 40.125 -8.796875 C 39.9375 -9.296875 40.421875 -9.59375 40.625 -9.296875 L 45.5625 -4.453125 C 60.6875 9.984375 80.359375 -11.5625 67.8125 -26.59375 L 61.78125 -32.515625 C 61.78125 -32.515625 61.78125 -32.71875 62.078125 -32.515625 L 70.078125 -27.578125 C 70.671875 -30.140625 70.875 -32.515625 70.875 -35.09375 C 70.875 -54.65625 54.859375 -70.671875 35.1875 -70.671875 Z M 35.1875 -38.9375 C 37.359375 -38.9375 39.140625 -37.0625 39.140625 -35.09375 C 39.140625 -33.015625 37.359375 -31.4375 35.1875 -31.4375 C 33.109375 -31.4375 31.328125 -33.015625 31.328125 -35.09375 C 31.328125 -37.0625 33.109375 -38.9375 35.1875 -38.9375 Z M 35.1875 -38.9375 "/></g></g></g><g fill="#fdb811" fill-opacity="0.4"><g transform="translate(154.68054, 285.550029)"><g><path d="M 33.703125 0.6875 C 52.09375 0.6875 67.40625 -14.625 67.40625 -33.015625 L 67.40625 -54.265625 C 67.40625 -62.96875 60.203125 -70.171875 51.796875 -70.171875 C 43 -70.171875 35.875 -62.96875 35.875 -54.265625 L 35.875 -34.890625 C 35.875 -33.703125 34.890625 -32.421875 33.703125 -32.421875 C 32.421875 -32.421875 31.53125 -33.703125 31.53125 -34.890625 L 31.53125 -54.265625 C 31.53125 -62.96875 24.609375 -70.171875 15.90625 -70.171875 C 7.109375 -70.171875 0 -62.96875 0 -54.265625 L 0 -33.015625 C 0 -14.625 15.21875 0.6875 33.703125 0.6875 Z M 33.703125 0.6875 "/></g></g></g><g fill="#fdb811" fill-opacity="0.4"><g transform="translate(224.856787, 285.550029)"><g><path d="M 15.625 -0.09375 C 24.609375 -0.09375 31.53125 -7.3125 31.53125 -15.90625 L 31.53125 -54.46875 C 31.53125 -63.0625 24.609375 -69.984375 15.625 -69.984375 C 6.921875 -69.984375 0 -63.0625 0 -54.46875 L 0 -15.90625 C 0 -7.3125 6.921875 -0.09375 15.625 -0.09375 Z M 15.625 -0.09375 "/></g></g></g><g fill="#fdb811" fill-opacity="0.4"><g transform="translate(259.549547, 285.550029)"><g><path d="M 47.84375 -70.28125 L 15.328125 -70.28125 C 6.625 -70.28125 -0.5 -63.15625 -0.5 -54.5625 C -0.5 -46.953125 4.75 -40.71875 11.765625 -39.046875 L 19.875 -44.78125 C 20.453125 -45.078125 21.25 -44.1875 20.65625 -43.6875 L 4.9375 -27.671875 C 1.6875 -24.71875 -0.6875 -20.65625 -0.6875 -15.71875 C -0.6875 -7.015625 6.625 0 15.328125 0 L 48.140625 0 C 56.734375 0 63.859375 -7.90625 63.859375 -15.71875 C 63.859375 -23.921875 58.71875 -29.546875 51.59375 -31.234375 L 42.890625 -25.5 C 42.40625 -24.90625 41.8125 -25.796875 42.109375 -26.296875 C 47.84375 -32.03125 53.578125 -37.65625 58.90625 -43.09375 C 68.203125 -52.390625 63.265625 -70.28125 47.84375 -70.28125 Z M 47.84375 -70.28125 "/></g></g></g><g fill="#ffc516" fill-opacity="1"><g transform="translate(81.143745, 285.550029)"><g><path d="M 35.1875 -70.671875 C 15.71875 -70.671875 -0.296875 -54.65625 -0.296875 -35.09375 C -0.296875 -15.421875 15.71875 0.203125 35.1875 0.203125 C 38.640625 0.203125 41.90625 0 45.078125 -1.09375 L 40.125 -8.796875 C 39.9375 -9.296875 40.421875 -9.59375 40.625 -9.296875 L 45.5625 -4.453125 C 60.6875 9.984375 80.359375 -11.5625 67.8125 -26.59375 L 61.78125 -32.515625 C 61.78125 -32.515625 61.78125 -32.71875 62.078125 -32.515625 L 70.078125 -27.578125 C 70.671875 -30.140625 70.875 -32.515625 70.875 -35.09375 C 70.875 -54.65625 54.859375 -70.671875 35.1875 -70.671875 Z M 35.1875 -38.9375 C 37.359375 -38.9375 39.140625 -37.0625 39.140625 -35.09375 C 39.140625 -33.015625 37.359375 -31.4375 35.1875 -31.4375 C 33.109375 -31.4375 31.328125 -33.015625 31.328125 -35.09375 C 31.328125 -37.0625 33.109375 -38.9375 35.1875 -38.9375 Z M 35.1875 -38.9375 "/></g></g></g><g fill="#ffc516" fill-opacity="1"><g transform="translate(154.68054, 285.550029)"><g><path d="M 33.703125 0.6875 C 52.09375 0.6875 67.40625 -14.625 67.40625 -33.015625 L 67.40625 -54.265625 C 67.40625 -62.96875 60.203125 -70.171875 51.796875 -70.171875 C 43 -70.171875 35.875 -62.96875 35.875 -54.265625 L 35.875 -34.890625 C 35.875 -33.703125 34.890625 -32.421875 33.703125 -32.421875 C 32.421875 -32.421875 31.53125 -33.703125 31.53125 -34.890625 L 31.53125 -54.265625 C 31.53125 -62.96875 24.609375 -70.171875 15.90625 -70.171875 C 7.109375 -70.171875 0 -62.96875 0 -54.265625 L 0 -33.015625 C 0 -14.625 15.21875 0.6875 33.703125 0.6875 Z M 33.703125 0.6875 "/></g></g></g><g fill="#ffc516" fill-opacity="1"><g transform="translate(224.856787, 285.550029)"><g><path d="M 15.625 -0.09375 C 24.609375 -0.09375 31.53125 -7.3125 31.53125 -15.90625 L 31.53125 -54.46875 C 31.53125 -63.0625 24.609375 -69.984375 15.625 -69.984375 C 6.921875 -69.984375 0 -63.0625 0 -54.46875 L 0 -15.90625 C 0 -7.3125 6.921875 -0.09375 15.625 -0.09375 Z M 15.625 -0.09375 "/></g></g></g><g fill="#ffc516" fill-opacity="1"><g transform="translate(259.549547, 285.550029)"><g><path d="M 47.84375 -70.28125 L 15.328125 -70.28125 C 6.625 -70.28125 -0.5 -63.15625 -0.5 -54.5625 C -0.5 -46.953125 4.75 -40.71875 11.765625 -39.046875 L 19.875 -44.78125 C 20.453125 -45.078125 21.25 -44.1875 20.65625 -43.6875 L 4.9375 -27.671875 C 1.6875 -24.71875 -0.6875 -20.65625 -0.6875 -15.71875 C -0.6875 -7.015625 6.625 0 15.328125 0 L 48.140625 0 C 56.734375 0 63.859375 -7.90625 63.859375 -15.71875 C 63.859375 -23.921875 58.71875 -29.546875 51.59375 -31.234375 L 42.890625 -25.5 C 42.40625 -24.90625 41.8125 -25.796875 42.109375 -26.296875 C 47.84375 -32.03125 53.578125 -37.65625 58.90625 -43.09375 C 68.203125 -52.390625 63.265625 -70.28125 47.84375 -70.28125 Z M 47.84375 -70.28125 "/></g></g></g></svg>